HIERARCHY
ROOT hip
{
  OFFSET 0 0 0
  CHANNELS 6 Xposition Yposition Zposition Zrotation Yrotation Xrotation
  JOINT abdomen
  {
    OFFSET 0 20.6881 -0.73152
    CHANNELS 3 Zrotation Xrotation Yrotation
    JOINT chest
    {
      OFFSET 0 11.7043 -0.48768
      CHANNELS 3 Zrotation Xrotation Yrotation
      JOINT neck
      {
        OFFSET 0 22.1894 -2.19456
        CHANNELS 3 Zrotation Xrotation Yrotation
        JOINT head
        {
          OFFSET -0.24384 7.07133 1.2192
          CHANNELS 3 Zrotation Xrotation Yrotation
          JOINT leftEye
          {
            OFFSET 4.14528 8.04674 8.04672
            CHANNELS 3 Zrotation Xrotation Yrotation
            End Site
            {
              OFFSET 1 0 0
            }
          }
          JOINT rightEye
          {
            OFFSET -3.6576 8.04674 8.04672
            CHANNELS 3 Zrotation Xrotation Yrotation
            End Site
            {
              OFFSET 1 0 0
            }
          }
        }
      }
      JOINT rCollar
      {
        OFFSET -2.68224 19.2634 -4.8768
        CHANNELS 3 Zrotation Xrotation Yrotation
        JOINT rShldr
        {
          OFFSET -8.77824 -1.95073 1.46304
          CHANNELS 3 Zrotation Xrotation Yrotation
          JOINT rForeArm
          {
            OFFSET -28.1742 -1.7115 0.48768
            CHANNELS 3 Zrotation Xrotation Yrotation
            JOINT rHand
            {
              OFFSET -22.5879 0.773209 7.07136
              CHANNELS 3 Zrotation Xrotation Yrotation
              JOINT rThumb1
              {
                OFFSET -1.2192 -0.487915 3.41376
                CHANNELS 3 Zrotation Xrotation Yrotation
                JOINT rThumb2
                {
                  OFFSET -3.37035 -0.52449 3.41376
                  CHANNELS 3 Zrotation Xrotation Yrotation
                  End Site
                  {
                    OFFSET -1.78271 -1.18214 1.43049
                  }
                }
              }
              JOINT rIndex1
              {
                OFFSET -7.75947 0.938293 5.60832
                CHANNELS 3 Zrotation Xrotation Yrotation
                JOINT rIndex2
                {
                  OFFSET -2.54057 -0.884171 1.56538
                  CHANNELS 3 Zrotation Xrotation Yrotation
                  End Site
                  {
                    OFFSET -1.62519 -0.234802 1.16502
                  }
                }
              }
              JOINT rMid1
              {
                OFFSET -8.24714 1.18213 3.41376
                CHANNELS 3 Zrotation Xrotation Yrotation
                JOINT rMid2
                {
                  OFFSET -3.10165 -0.590103 1.0647
                  CHANNELS 3 Zrotation Xrotation Yrotation
                  End Site
                  {
                    OFFSET -2.48547 -0.328903 0.83742
                  }
                }
              }
              JOINT rRing1
              {
                OFFSET -8.82822 0.546677 1.51678
                CHANNELS 3 Zrotation Xrotation Yrotation
                JOINT rRing2
                {
                  OFFSET -2.60934 -0.819778 -0.0198488
                  CHANNELS 3 Zrotation Xrotation Yrotation
                  End Site
                  {
                    OFFSET -2.33842 -0.294052 0.168128
                  }
                }
              }
              JOINT rPinky1
              {
                OFFSET -8.27202 -0.0477905 -0.4584
                CHANNELS 3 Zrotation Xrotation Yrotation
                JOINT rPinky2
                {
                  OFFSET -1.82734 -0.647385 -0.700984
                  CHANNELS 3 Zrotation Xrotation Yrotation
                  End Site
                  {
                    OFFSET -1.69225 -0.51767 -0.607171
                  }
                }
              }
            }
          }
        }
      }
      JOINT lCollar
      {
        OFFSET 2.68224 19.2634 -4.8768
        CHANNELS 3 Zrotation Xrotation Yrotation
        JOINT lShldr
        {
          OFFSET 8.77824 -1.95073 1.46304
          CHANNELS 3 Zrotation Xrotation Yrotation
          JOINT lForeArm
          {
            OFFSET 28.1742 -1.7115 0.48768
            CHANNELS 3 Zrotation Xrotation Yrotation
            JOINT lHand
            {
              OFFSET 22.5879 0.773209 7.07136
              CHANNELS 3 Zrotation Xrotation Yrotation
              JOINT lThumb1
              {
                OFFSET 1.2192 -0.487915 3.41376
                CHANNELS 3 Zrotation Xrotation Yrotation
                JOINT lThumb2
                {
                  OFFSET 3.37035 -0.52449 3.41376
                  CHANNELS 3 Zrotation Xrotation Yrotation
                  End Site
                  {
                    OFFSET 1.78271 -1.18214 1.43049
                  }
                }
              }
              JOINT lIndex1
              {
                OFFSET 7.75947 0.938293 5.60832
                CHANNELS 3 Zrotation Xrotation Yrotation
                JOINT lIndex2
                {
                  OFFSET 2.54057 -0.884171 1.56538
                  CHANNELS 3 Zrotation Xrotation Yrotation
                  End Site
                  {
                    OFFSET 1.62519 -0.234802 1.16502
                  }
                }
              }
              JOINT lMid1
              {
                OFFSET 8.24714 1.18213 3.41376
                CHANNELS 3 Zrotation Xrotation Yrotation
                JOINT lMid2
                {
                  OFFSET 3.10165 -0.590103 1.0647
                  CHANNELS 3 Zrotation Xrotation Yrotation
                  End Site
                  {
                    OFFSET 2.48547 -0.328903 0.83742
                  }
                }
              }
              JOINT lRing1
              {
                OFFSET 8.82822 0.546677 1.51678
                CHANNELS 3 Zrotation Xrotation Yrotation
                JOINT lRing2
                {
                  OFFSET 2.60934 -0.819778 -0.0198488
                  CHANNELS 3 Zrotation Xrotation Yrotation
                  End Site
                  {
                    OFFSET 2.33842 -0.294052 0.168128
                  }
                }
              }
              JOINT lPinky1
              {
                OFFSET 8.27202 -0.0477905 -0.4584
                CHANNELS 3 Zrotation Xrotation Yrotation
                JOINT lPinky2
                {
                  OFFSET 1.82734 -0.647385 -0.700984
                  CHANNELS 3 Zrotation Xrotation Yrotation
                  End Site
                  {
                    OFFSET 1.69225 -0.51767 -0.607171
                  }
                }
              }
            }
          }
        }
      }
    }
  }
  JOINT rButtock
  {
    OFFSET -8.77824 4.35084 1.2192
    CHANNELS 3 Zrotation Xrotation Yrotation
    JOINT rThigh
    {
      OFFSET 0 -1.70687 -2.19456
      CHANNELS 3 Zrotation Xrotation Yrotation
      JOINT rShin
      {
        OFFSET 0 -36.8199 0.73152
        CHANNELS 3 Zrotation Xrotation Yrotation
        JOINT rFoot
        {
          OFFSET 0.73152 -45.1104 -5.12064
          CHANNELS 3 Zrotation Xrotation Yrotation
          End Site
          {
            OFFSET -1.1221 -3.69964 12.103
          }
        }
      }
    }
  }
  JOINT lButtock
  {
    OFFSET 8.77824 4.35084 1.2192
    CHANNELS 3 Zrotation Xrotation Yrotation
    JOINT lThigh
    {
      OFFSET 0 -1.70687 -2.19456
      CHANNELS 3 Zrotation Xrotation Yrotation
      JOINT lShin
      {
        OFFSET 0 -36.8199 0.73152
        CHANNELS 3 Zrotation Xrotation Yrotation
        JOINT lFoot
        {
          OFFSET -0.73152 -45.1104 -5.12064
          CHANNELS 3 Zrotation Xrotation Yrotation
          End Site
          {
            OFFSET 1.1221 -3.69964 12.103
          }
        }
      }
    }
  }
}
MOTION
Frames:	4
Frame Time:	0.03333
-12.495443690568209 67.5552248954773 -57.1900874376297 164.88478088378906 -38.97236633300781 -167.48731994628906 -7.927482604980469 22.334827423095703 0.0829039067029953 7.1967549324035645 -13.382611274719238 0.47253620624542236 -10.165504455566406 17.38964080810547 -11.87925910949707 7.297685146331787 -29.553489685058594 -22.203901290893555 0.45737773180007935 0.23981644213199615 -0.022373028099536896 0.7992913722991943 -0.17674440145492554 0.5678586959838867 -0.6818419098854065 -0.11961954087018967 -0.5954803228378296 61.64147186279297 -9.532657623291016 40.15757751464844 -26.978174209594727 -26.68934440612793 62.85376739501953 -15.679208755493164 -66.48936462402344 -23.384172439575195 0.1496770977973938 0.7926907539367676 0.34368205070495605 -0.2261388748884201 -0.10129904001951218 -0.6023917198181152 -0.5221609473228455 -0.1729269176721573 -0.0019340510480105877 6.839407444000244 5.896164417266846 0.4569289982318878 -0.06177204102277756 -0.021595904603600502 -0.07371227443218231 2.753603458404541 1.0072394609451294 0.21496619284152985 -0.5461592078208923 -0.6804701089859009 -0.4154902994632721 11.388958930969238 0.22762438654899597 -0.17556163668632507 -0.30160850286483765 0.06030000001192093 0.4676080644130707 1.9465783834457397 -0.41090819239616394 -0.030183125287294388 -0.20046968758106232 1.1322193145751953 -0.15544869005680084 3.6638784408569336 -42.392086029052734 -52.05919647216797 28.871505737304688 -36.734771728515625 -77.45549011230469 3.514907121658325 -45.429378509521484 8.170170783996582 -0.2928599715232849 0.3657355010509491 -0.4020617604255676 -0.10808621346950531 -0.4845627248287201 0.6323322057723999 1.0212589502334595 -0.34474557638168335 -0.6886995434761047 -9.165448188781738 4.976986408233643 -0.24190983176231384 0.8007033467292786 -0.002694779308512807 -0.058414556086063385 -3.70200252532959 1.4375604391098022 -0.1622789204120636 -1.2788147926330566 0.517387866973877 0.369255393743515 -10.105501174926758 0.8944880366325378 -0.15048860013484955 -0.02670655958354473 0.0815892145037651 0.23202961683273315 -1.4424645900726318 -0.3447910249233246 0.28795483708381653 -0.17773668467998505 1.3001829385757446 0.19978216290473938 -85.28097534179688 -60.24546813964844 -71.2882080078125 -10.458277702331543 81.49658203125 10.658069610595703 -1.4112398624420166 -2.4437849521636963 6.419834136962891 0.7094604969024658 -0.4052732288837433 0.6705714464187622 19.532917022705078 0.3580951690673828 2.9020206928253174 -0.2389138638973236 34.11183547973633 -3.067368507385254 8.503674507141113 -9.080954551696777 24.53579330444336
-12.706764880567789 67.9267942905426 -58.463758043944836 164.9727020263672 -41.38570022583008 -167.36749267578125 -7.75269889831543 22.789979934692383 0.2662401795387268 6.8558173179626465 -13.543017387390137 0.37100186944007874 -10.019966125488281 17.165071487426758 -11.8109712600708 7.177726745605469 -29.272016525268555 -21.778451919555664 0.4908059537410736 0.3458966612815857 0.025272518396377563 0.7644636631011963 -0.1322675347328186 0.5633902549743652 -0.699447751045227 -0.18354009091854095 -0.6549153327941895 61.64752197265625 -9.424217224121094 40.10823059082031 -26.967798233032227 -26.52843475341797 62.69188690185547 -15.770788192749023 -66.25645446777344 -23.433551788330078 0.20906555652618408 0.8802408576011658 0.4568037688732147 -0.251880407333374 -0.11805055290460587 -0.617499053478241 -0.4994801878929138 -0.2380465865135193 0.013159938156604767 6.92316198348999 6.008306980133057 0.4481315612792969 -0.0393357127904892 -0.075533427298069 -0.05376223474740982 2.747992515563965 0.9713349342346191 0.20976682007312775 -0.5498989224433899 -0.7323349714279175 -0.4178994596004486 11.471440315246582 0.1745148003101349 -0.14897634088993073 -0.42806440591812134 0.06969104707241058 0.37096214294433594 1.9141621589660645 -0.4988705813884735 -0.023151695728302002 -0.2772866189479828 1.0093786716461182 -0.16749227046966553 2.8511273860931396 -41.137657165527344 -51.55553436279297 28.93770980834961 -36.75929641723633 -77.40070343017578 3.5487349033355713 -45.466800689697266 8.228731155395508 -0.37824344635009766 0.36239999532699585 -0.34152498841285706 -0.11427430063486099 -0.45300981402397156 0.6595839858055115 1.0649776458740234 -0.3973006010055542 -0.7214727401733398 -9.05674934387207 4.968341827392578 -0.25763630867004395 0.8369181752204895 0.05546389892697334 -0.021332252770662308 -3.7039856910705566 1.5017215013504028 -0.15017235279083252 -1.3710094690322876 0.4909029006958008 0.4075360894203186 -10.10884952545166 0.9710864424705505 -0.1694568395614624 -0.04739999398589134 0.013803909532725811 0.35075539350509644 -1.4075977802276611 -0.36413946747779846 0.33476191759109497 -0.236006498336792 1.2479673624038696 0.19578766822814941 -85.23651123046875 -60.60096740722656 -71.20857238769531 -10.393217086791992 81.75587463378906 10.591192245483398 -1.4138896465301514 -2.878614664077759 5.701264381408691 0.6146458387374878 -0.3957654535770416 0.626455545425415 19.738374710083008 -0.4547431468963623 2.386688709259033 -0.27373427152633667 33.121070861816406 -3.045820474624634 7.954577922821045 -8.090027809143066 23.862016677856445
-12.704426515847445 68.56188774108887 -59.467242285609245 164.13433837890625 -46.25694274902344 -167.65411376953125 -6.652338981628418 23.93423843383789 1.2297042608261108 5.6539530754089355 -13.795299530029297 0.24165698885917664 -9.528613090515137 16.22660255432129 -10.690414428710938 6.349274158477783 -29.24483299255371 -19.563037872314453 0.39344319701194763 0.4464271664619446 9.659357601776719e-05 0.7565937638282776 -0.07668275386095047 0.49149543046951294 -0.6716574430465698 -0.16055768728256226 -0.6369235515594482 59.781700134277344 -7.908954620361328 41.247074127197266 -27.511396408081055 -27.52872657775879 64.27889251708984 -15.508625030517578 -65.37384796142578 -22.920289993286133 0.2446151077747345 1.0233780145645142 0.7016742825508118 -0.1732642948627472 -0.11604486405849457 -0.6102212071418762 -0.5454657673835754 -0.236265167593956 0.10479698330163956 7.026684284210205 6.031766414642334 0.5785133242607117 0.022853894159197807 -0.03426044434309006 -0.01579214259982109 2.7448809146881104 0.880204975605011 0.20999477803707123 -0.5928034782409668 -0.8839693069458008 -0.3572431802749634 11.584970474243164 0.1456906795501709 -0.01808680221438408 -0.5401611328125 0.27570611238479614 0.39647096395492554 2.008573532104492 -0.5608951449394226 0.14671634137630463 -0.4668358862400055 0.8977457284927368 -0.2091357558965683 1.3098057508468628 -38.9205436706543 -50.613643646240234 29.18408203125 -38.04718780517578 -79.00082397460938 3.9115753173828125 -46.966312408447266 8.800163269042969 -0.5287795662879944 0.5361297726631165 -0.3157581388950348 -0.15789586305618286 -0.4528214931488037 0.7008907198905945 1.1514978408813477 -0.25785398483276367 -0.8026874661445618 -8.726675033569336 4.873111248016357 -0.25428664684295654 0.995587944984436 0.07524839043617249 0.09629716724157333 -3.6896214485168457 1.651014804840088 -0.21345095336437225 -1.4680272340774536 0.4382166564464569 0.48253005743026733 -10.288473129272461 1.089343786239624 0.01860722154378891 -0.1387990415096283 -0.18994340300559998 0.34300675988197327 -1.2393889427185059 -0.3478858470916748 0.4611014425754547 -0.30616334080696106 1.1451541185379028 -0.04358360543847084 -82.43165588378906 -61.308067321777344 -68.87163543701172 -10.394227981567383 82.8925552368164 10.669892311096191 -1.8768823146820068 -4.653385162353516 2.862626552581787 0.527744472026825 -0.29359525442123413 0.5072953701019287 21.20611000061035 -5.232759952545166 2.4028656482696533 -0.2219901829957962 34.18588638305664 -3.044461965560913 6.46499490737915 -5.629019737243652 21.547515869140625
-12.426161859184504 69.12079453468323 -59.85211245715618 163.32394409179688 -53.85272979736328 -167.56260681152344 -5.128986358642578 25.642332077026367 2.518132448196411 4.114853382110596 -13.907983779907227 0.20074695348739624 -8.664192199707031 14.699661254882812 -9.083198547363281 5.135045528411865 -29.159543991088867 -16.231487274169922 0.25365856289863586 0.5126389265060425 -0.13615088164806366 0.735651433467865 0.0047785439528524876 0.39405250549316406 -0.4823984205722809 -0.21645817160606384 -0.6320995688438416 56.56809616088867 -6.038033962249756 42.676734924316406 -28.286855697631836 -28.55899429321289 65.76896667480469 -14.69109058380127 -63.42386245727539 -21.575603485107422 0.24259819090366364 1.256400227546692 1.0498278141021729 -0.05087224394083023 -0.09922610968351364 -0.569644570350647 -0.4647984504699707 -0.04509728029370308 0.20454512536525726 7.063692092895508 5.95218563079834 0.60265052318573 0.11301104724407196 -0.004479873925447464 0.08195731043815613 2.765584945678711 0.7392364740371704 0.18643970787525177 -0.5443843603134155 -1.1414250135421753 -0.20116035640239716 11.50043773651123 0.0459832027554512 0.07632379233837128 -0.7035369873046875 0.5081079602241516 0.5012052059173584 2.2040374279022217 -0.6894840002059937 0.438297837972641 -0.7135891914367676 0.5868759751319885 -0.3049706816673279 -0.5391610860824585 -35.142234802246094 -48.5340461730957 29.554004669189453 -39.5691032409668 -80.75935363769531 4.304006099700928 -48.561649322509766 9.462040901184082 -0.7013264298439026 0.9343227744102478 -0.30119436979293823 -0.2751864790916443 -0.41521212458610535 0.7982676029205322 1.2906869649887085 -0.087564617395401 -0.9289039969444275 -8.109509468078613 4.742736339569092 -0.2350189983844757 1.2290478944778442 0.01899530552327633 0.15167972445487976 -3.6417503356933594 1.7742576599121094 -0.44271305203437805 -1.610079050064087 0.3965228497982025 0.49687114357948303 -10.539629936218262 1.2612701654434204 0.44052717089653015 -0.33385947346687317 -0.44267651438713074 0.2930150032043457 -0.948169469833374 -0.2254246473312378 0.6989021897315979 -0.3859921097755432 0.9240201711654663 -0.44655147194862366 -77.25471496582031 -62.52058410644531 -64.279052734375 -8.814820289611816 83.79280090332031 9.262969970703125 -2.6490368843078613 -6.940151214599609 -1.1967272758483887 0.3320140838623047 -0.1458604782819748 0.3614477217197418 23.05373764038086 -11.583529472351074 2.1834943294525146 -0.12965983152389526 35.057586669921875 -2.9801695346832275 4.415330410003662 -1.958828091621399 18.42957305908203
